<?xml version="1.0" standalone="no"?>
<!DOCTYPE svg PUBLIC "-//W3C//DTD SVG 20010904//EN"
 "http://www.w3.org/TR/2001/REC-SVG-20010904/DTD/svg10.dtd">
<svg version="1.0" xmlns="http://www.w3.org/2000/svg"
 width="3000.000000pt" height="3000.000000pt" viewBox="0 0 3000.000000 3000.000000"
 preserveAspectRatio="xMidYMid meet">

<g transform="translate(0.000000,3000.000000) scale(0.100000,-0.100000)"
fill="#000000" stroke="none">
<path d="M14519 19163 c-6 -16 -732 -1839 -1615 -4051 -883 -2213 -1614 -4046
-1624 -4073 l-20 -49 464 0 463 0 724 1823 724 1822 1757 3 c1399 2 1757 0
1761 -10 467 -1202 556 -1463 712 -2101 77 -315 173 -788 246 -1219 l54 -318
287 0 288 0 -21 53 c-11 28 -748 1868 -1636 4087 -889 2219 -1618 4041 -1620
4048 -4 9 -107 12 -469 12 l-464 0 -11 -27z m1711 -2245 c459 -1146 840 -2098
847 -2115 l13 -33 -1699 0 -1700 0 847 2115 c466 1163 850 2115 853 2115 3 0
381 -937 839 -2082z"/>
<path d="M13756 10294 c-296 -58 -532 -241 -655 -506 -64 -137 -76 -199 -76
-388 0 -189 11 -237 80 -385 54 -115 85 -160 171 -247 156 -158 342 -243 589
-268 214 -22 430 24 609 129 204 119 351 317 408 548 31 125 31 331 0 458 -84
336 -360 593 -711 659 -102 20 -318 20 -415 0z m389 -220 c307 -74 515 -346
515 -672 -1 -322 -203 -588 -506 -666 -187 -48 -400 -19 -562 76 -84 49 -200
170 -244 253 -140 270 -103 586 95 810 156 178 447 260 702 199z"/>
<path d="M11090 9400 l0 -890 125 0 125 0 0 400 0 400 515 0 515 0 0 -400 0
-400 125 0 125 0 0 890 0 890 -125 0 -125 0 0 -380 0 -380 -515 0 -515 0 0
380 0 380 -125 0 -125 0 0 -890z"/>
<path d="M15310 9400 l0 -890 115 0 115 0 0 646 c0 427 3 645 10 642 6 -2 153
-242 328 -533 l318 -530 58 0 58 0 321 540 322 540 6 -550 c3 -303 7 -596 8
-652 l1 -103 115 0 115 0 0 890 0 890 -103 0 -103 0 -364 -625 c-201 -343
-367 -625 -370 -625 -3 0 -172 281 -375 625 l-370 624 -102 1 -103 0 0 -890z"/>
<path d="M17750 9400 l0 -890 640 0 640 0 0 110 0 110 -520 0 -520 0 0 290 0
290 450 0 450 0 0 105 0 105 -450 0 -450 0 0 280 0 280 505 0 505 0 0 105 0
105 -625 0 -625 0 0 -890z"/>
</g>
</svg>
