<?xml version="1.0" standalone="no"?>
<!DOCTYPE svg PUBLIC "-//W3C//DTD SVG 20010904//EN"
 "http://www.w3.org/TR/2001/REC-SVG-20010904/DTD/svg10.dtd">
<svg version="1.0" xmlns="http://www.w3.org/2000/svg"
 width="3000.000000pt" height="3000.000000pt" viewBox="0 0 3000.000000 3000.000000"
 preserveAspectRatio="xMidYMid meet">

<g transform="translate(0.000000,3000.000000) scale(0.100000,-0.100000)"
fill="#f6f5f0" stroke="none">
<path d="M26655 17600 c-501 -45 -937 -270 -1233 -638 -259 -322 -412 -714
-478 -1227 -20 -155 -23 -544 -5 -705 86 -769 413 -1344 949 -1668 306 -185
754 -280 1152 -243 590 55 1043 318 1359 790 259 388 391 873 391 1434 0 745
-213 1351 -620 1757 -322 323 -737 491 -1248 504 -92 3 -212 1 -267 -4z m461
-89 c634 -124 1039 -699 1165 -1656 26 -197 36 -615 20 -820 -53 -669 -249
-1185 -572 -1506 -226 -225 -525 -342 -869 -342 -273 0 -494 64 -703 204 -89
60 -272 248 -345 356 -204 301 -336 712 -387 1208 -18 175 -21 612 -5 780 61
641 251 1134 555 1441 208 209 431 316 735 354 104 12 289 4 406 -19z"/>
<path d="M10740 17584 c-290 -29 -586 -105 -779 -199 -289 -141 -458 -316
-532 -555 -31 -99 -34 -302 -5 -394 67 -222 253 -413 591 -607 166 -95 389
-199 830 -389 766 -329 1048 -487 1281 -715 174 -171 258 -350 271 -575 13
-236 -59 -423 -227 -590 -172 -171 -437 -283 -752 -320 -159 -19 -448 -8 -608
23 -339 66 -727 220 -1170 465 l-145 81 -22 -147 c-12 -81 -25 -161 -28 -179
l-6 -32 198 -65 c866 -283 1742 -320 2353 -99 474 172 755 453 825 829 23 121
16 338 -14 442 -78 269 -308 521 -692 761 -207 129 -517 282 -1077 530 -623
277 -890 428 -1067 606 -129 129 -185 245 -185 385 0 242 162 442 451 556 207
81 383 113 667 121 221 6 315 -2 492 -43 314 -73 623 -194 973 -381 88 -46
160 -83 161 -81 4 5 66 352 63 353 -1 0 -60 17 -132 38 -281 79 -603 141 -895
173 -215 23 -633 27 -820 8z"/>
<path d="M2787 17488 c-3 -7 -384 -962 -847 -2123 -464 -1160 -845 -2118 -848
-2127 -4 -17 12 -18 234 -18 l239 0 377 948 376 947 924 3 925 2 98 -252 c201
-518 287 -831 388 -1403 l42 -240 149 -3 c122 -2 147 0 143 11 -3 8 -386 965
-852 2128 -466 1163 -850 2120 -852 2127 -4 9 -63 12 -248 12 -185 0 -244 -3
-248 -12z m908 -1196 c241 -601 436 -1095 433 -1097 -3 -3 -403 -4 -890 -3
l-886 3 434 1085 c238 597 439 1096 445 1110 8 19 12 21 18 10 5 -8 205 -507
446 -1108z"/>
<path d="M5550 16053 c0 -805 5 -1513 10 -1595 5 -81 18 -189 29 -240 134
-643 675 -1046 1459 -1087 611 -32 1109 131 1417 462 180 193 286 423 330 712
13 86 15 320 15 1648 l0 1547 -240 0 -239 0 -4 -1687 -3 -1688 -23 -100 c-51
-226 -135 -388 -271 -526 -137 -138 -316 -233 -532 -281 -150 -33 -434 -33
-596 0 -396 80 -669 310 -785 659 -76 227 -71 105 -74 1961 l-4 1662 -244 0
-245 0 0 -1447z"/>
<path d="M13280 17325 c0 -96 2 -175 4 -175 2 0 30 12 62 26 432 191 675 244
1207 260 l227 7 0 -2111 0 -2112 240 0 240 0 2 2108 3 2107 215 -3 c467 -5
801 -71 1151 -227 57 -26 110 -49 117 -52 9 -4 12 34 12 171 l0 176 -1740 0
-1740 0 0 -175z"/>
<path d="M17310 15360 l0 -2140 1570 0 1570 0 0 176 c0 162 -1 175 -17 170
-619 -193 -1324 -276 -2340 -276 l-303 0 0 1155 0 1155 1135 0 1135 0 0 30 0
30 -1135 0 -1135 0 0 890 0 890 148 0 c612 -1 1308 -47 1717 -116 178 -29 512
-110 640 -154 32 -11 60 -20 62 -20 1 0 3 79 3 175 l0 175 -1525 0 -1525 0 0
-2140z"/>
<path d="M21250 15360 l0 -2140 240 0 240 0 2 772 3 772 85 74 c174 150 407
285 585 338 70 21 112 27 190 28 93 1 105 -2 168 -31 129 -61 111 -30 623
-1038 l462 -910 241 -3 242 -2 -25 47 c-13 27 -205 417 -426 868 -221 451
-417 845 -436 877 -47 77 -139 160 -229 204 -41 20 -75 38 -75 40 0 1 40 11
89 23 439 101 758 420 878 881 34 128 42 344 19 476 -34 197 -117 363 -249
501 -166 173 -357 273 -640 335 -101 22 -112 22 -1044 26 l-943 3 0 -2141z
m1612 2051 c178 -39 330 -104 449 -192 75 -55 180 -162 229 -234 52 -75 119
-227 147 -332 25 -90 27 -114 27 -298 1 -185 -1 -208 -26 -305 -54 -214 -138
-371 -267 -501 -98 -98 -187 -155 -306 -195 -71 -24 -102 -28 -280 -35 -267
-10 -395 -42 -608 -151 -110 -56 -329 -199 -425 -277 -34 -28 -64 -51 -67 -51
-3 0 -5 585 -5 1301 l0 1301 518 -5 c484 -4 523 -5 614 -26z"/>
<path d="M7954 12590 c-223 -40 -388 -182 -455 -390 -30 -91 -30 -249 -1 -340
59 -183 208 -326 392 -375 331 -89 666 87 745 390 19 76 19 234 0 310 -47 179
-186 323 -369 381 -89 28 -229 39 -312 24z m247 -146 c180 -53 299 -216 299
-412 0 -130 -33 -216 -119 -305 -85 -89 -180 -127 -317 -127 -181 0 -320 84
-397 240 -31 62 -32 69 -32 190 0 114 2 130 27 182 29 63 103 148 160 184 97
62 261 83 379 48z"/>
<path d="M21963 12590 c-228 -41 -402 -198 -459 -413 -18 -68 -18 -228 1 -297
78 -295 383 -471 700 -405 82 17 193 70 250 119 l40 35 -49 50 -49 50 -40 -36
c-22 -19 -65 -47 -96 -62 -51 -24 -67 -26 -181 -26 -120 0 -128 1 -192 32 -94
44 -160 109 -206 202 -36 73 -37 77 -37 190 0 110 2 120 32 183 44 94 109 160
202 206 75 37 76 37 200 37 115 0 131 -3 182 -26 30 -14 71 -40 91 -58 20 -17
40 -31 45 -31 5 0 29 21 53 46 l45 46 -44 38 c-53 46 -129 86 -202 106 -69 18
-219 26 -286 14z"/>
<path d="M23855 12594 c-164 -26 -313 -116 -399 -242 -66 -97 -88 -166 -94
-291 -5 -126 7 -190 56 -290 109 -225 386 -350 657 -297 206 41 368 180 436
376 34 97 33 267 -3 366 -63 178 -206 310 -388 359 -58 16 -214 27 -265 19z
m237 -154 c128 -39 237 -150 275 -279 21 -72 21 -190 -1 -263 -24 -84 -90
-174 -164 -225 -88 -60 -151 -76 -277 -71 -93 3 -108 6 -177 40 -92 46 -157
112 -201 206 -30 63 -32 73 -32 182 0 108 2 119 32 182 53 113 138 189 258
230 71 25 205 24 287 -2z"/>
<path d="M5550 12030 l0 -560 75 0 75 0 0 250 0 250 330 0 330 0 0 -250 0
-250 75 0 75 0 0 560 0 560 -75 0 -75 0 -2 -242 -3 -243 -325 0 -325 0 -3 243
-2 242 -75 0 -75 0 0 -560z"/>
<path d="M9627 12584 c-4 -4 -7 -256 -7 -561 l0 -553 75 0 75 0 0 400 c0 220
3 400 8 400 4 0 96 -148 205 -330 l198 -330 34 0 34 0 192 323 c105 177 198
329 205 337 12 12 14 -46 14 -393 l0 -407 75 0 75 0 0 560 0 560 -63 0 -63 0
-228 -390 c-126 -215 -233 -389 -239 -387 -7 2 -114 176 -240 388 l-228 384
-57 3 c-32 2 -61 0 -65 -4z"/>
<path d="M11867 12583 c-4 -3 -7 -255 -7 -560 l0 -553 405 0 405 0 0 65 0 65
-325 0 -325 0 0 185 0 185 280 0 280 0 0 65 0 65 -280 0 -280 0 0 175 0 175
315 0 315 0 0 70 0 70 -388 0 c-214 0 -392 -3 -395 -7z"/>
<path d="M14996 12570 c-136 -53 -193 -195 -131 -329 14 -29 44 -76 66 -103
23 -27 40 -50 38 -52 -2 -1 -29 -18 -59 -36 -200 -125 -262 -295 -162 -443
117 -174 474 -194 672 -37 21 16 42 30 46 30 5 0 40 -31 79 -70 l70 -70 38 47
38 47 -71 71 c-66 66 -82 96 -61 110 12 7 66 148 74 192 6 30 4 32 -40 47 -26
9 -52 16 -58 16 -6 0 -17 -21 -23 -47 -13 -59 -48 -143 -59 -143 -5 0 -69 61
-143 136 l-135 136 25 16 c83 56 149 115 174 155 77 125 24 285 -109 331 -68
23 -205 21 -269 -4z m219 -94 c72 -31 95 -126 46 -194 -28 -39 -155 -126 -175
-119 -26 10 -95 107 -106 148 -27 101 39 178 153 179 26 0 63 -6 82 -14z m0
-627 l160 -160 -35 -30 c-58 -49 -132 -72 -235 -73 -110 -1 -169 19 -218 73
-55 61 -57 137 -8 218 17 27 152 133 170 133 4 0 78 -72 166 -161z"/>
<path d="M17758 12584 c-5 -4 -8 -257 -8 -562 l0 -554 293 5 c320 5 367 12
486 69 45 21 88 53 137 102 108 109 154 223 154 386 0 97 -18 179 -57 260 -37
77 -150 187 -234 228 -116 56 -165 63 -479 69 -157 3 -288 2 -292 -3z m591
-145 c126 -29 222 -104 278 -217 37 -75 38 -78 38 -192 0 -114 -1 -117 -37
-192 -40 -79 -84 -128 -159 -171 -77 -45 -148 -58 -361 -64 l-198 -6 0 427 0
426 198 0 c108 0 217 -5 241 -11z"/>
<path d="M19790 12030 l0 -560 400 0 400 0 0 65 0 65 -322 2 -323 3 -3 183 -2
182 280 0 280 0 0 65 0 65 -280 0 -280 0 0 175 0 175 315 0 315 0 0 70 0 70
-390 0 -390 0 0 -560z"/>
</g>
</svg>
