<?xml version="1.0" encoding="UTF-8"?>
<svg xmlns="http://www.w3.org/2000/svg" xmlns:xlink="http://www.w3.org/1999/xlink" viewBox="0 0 64 64" width="64px" height="64px">
<g id="surface159052132">
<path style=" stroke:none;fill-rule:nonzero;fill:rgb(100%,100%,100%);fill-opacity:1;" d="M 42 4 C 32.078125 4 24 12.078125 24 22 C 24 26.234375 25.53125 30.09375 28 33.171875 L 8.09375 53.078125 L 10.90625 55.921875 L 30.828125 36 C 33.90625 38.46875 37.765625 40 42 40 C 51.921875 40 60 31.921875 60 22 C 60 12.078125 51.921875 4 42 4 Z M 42 8 C 49.75 8 56 14.25 56 22 C 56 29.75 49.75 36 42 36 C 34.25 36 28 29.75 28 22 C 28 14.25 34.25 8 42 8 Z M 42 8 "/>
</g>
</svg>
